<svg xmlns="http://www.w3.org/2000/svg" viewBox="0 0 100 100">
  <rect x="16" y="12" width="68" height="8" rx="2" fill="#000000" />
  <path d="M50 30 C50 30 30 55 30 70 A20 20 0 1 0 70 70 C70 55 50 30 50 30 Z" fill="none" stroke="#000000" stroke-width="6" stroke-linejoin="round" />
  <path d="M40 70 A 9 9 0 0 1 44 62" fill="none" stroke="#000000" stroke-width="5" stroke-linecap="round" />
  <circle cx="24" cy="36" r="4.5" fill="#000000" />
  <circle cx="18" cy="54" r="4.5" fill="#000000" />
  <circle cx="25" cy="73" r="4.5" fill="#000000" />
  <circle cx="76" cy="36" r="4.5" fill="#000000" />
  <circle cx="82" cy="54" r="4.5" fill="#000000" />
  <circle cx="75" cy="73" r="4.5" fill="#000000" />
  <path d="M20 56H80" fill="none" stroke="#000000" stroke-width="6" stroke-linecap="round" />
  <path d="M72 48L80 56L72 64" fill="none" stroke="#000000" stroke-width="6" stroke-linecap="round" stroke-linejoin="round" />
</svg>
